<svg width="288" height="299" viewBox="0 0 288 299" fill="none" xmlns="http://www.w3.org/2000/svg">
<g clip-path="url(#clip0_211_23)">
<circle cx="144.5" cy="150.5" r="133.5" fill="#FFC059"/>
<rect x="84" y="62" width="121" height="176" rx="11" fill="#FFF0D7"/>
<path d="M115.286 125.792C113.496 126.931 104.382 135.232 94.9423 144.346C84.8518 154.111 76.0634 161.271 73.6221 161.76C66.7867 163.062 58.812 159.481 54.7432 153.46L51 147.926V154.436C51 158.179 52.7902 164.526 55.557 169.734C61.2532 181.127 70.0416 187.311 82.0851 188.613C93.9658 189.753 113.17 182.754 131.561 170.385L145.232 161.434L155.485 168.595C173.387 180.964 192.592 189.102 204.31 189.102C222.7 189.102 238.161 173.152 237.999 154.111V145.973L235.557 151.832C231.326 161.922 220.259 164.852 210.331 158.505C207.239 156.552 198.939 149.065 191.778 141.904C177.782 127.745 172.411 124.002 165.738 124.002C161.181 124.002 152.881 127.745 148.324 131.814C145.72 133.93 144.906 133.767 138.885 129.698C131.724 124.653 120.331 122.863 115.286 125.792Z" fill="black"/>
</g>
<defs>
<clipPath id="clip0_211_23">
<rect width="266.667" height="266.667" fill="white" transform="translate(11 17)"/>
</clipPath>
</defs>
</svg>
